<?xml version="1.0" standalone="no"?>
<!DOCTYPE svg PUBLIC "-//W3C//DTD SVG 20010904//EN"
 "http://www.w3.org/TR/2001/REC-SVG-20010904/DTD/svg10.dtd">
<svg version="1.0" xmlns="http://www.w3.org/2000/svg"
 width="524.000000pt" height="476.000000pt" viewBox="0 0 524.000000 476.000000"
 preserveAspectRatio="xMidYMid meet">
<metadata>
Created by potrace 1.16, written by Peter Selinger 2001-2019
</metadata>
<g transform="translate(0.000000,476.000000) scale(0.100000,-0.100000)"
fill="#000000" stroke="none">
<path d="M1597 3563 c-4 -3 -7 -132 -7 -285 l0 -278 155 0 155 0 0 55 0 55
-90 0 -90 0 0 230 0 230 -58 0 c-32 0 -62 -3 -65 -7z"/>
<path d="M1888 3565 c-5 -5 -8 -32 -8 -62 l0 -53 65 0 65 0 0 -225 0 -225 65
0 65 0 0 225 0 225 65 0 65 0 0 55 0 55 -83 0 c-46 0 -131 3 -188 6 -57 4
-107 3 -111 -1z"/>
<path d="M2444 3555 c-83 -43 -125 -124 -132 -260 -11 -207 80 -320 241 -302
90 11 146 68 155 157 l5 50 -62 0 c-54 0 -61 -2 -61 -20 0 -60 -51 -96 -99
-69 -35 20 -50 68 -50 166 -1 90 18 157 50 173 47 26 99 -4 99 -57 0 -21 3
-22 48 -17 69 8 72 10 72 47 0 38 -31 90 -73 121 -37 27 -148 34 -193 11z"/>
<path d="M2918 3562 l-138 -3 0 -280 0 -280 158 3 157 3 3 29 c2 15 1 39 -2
52 -6 23 -10 24 -97 24 l-90 0 3 58 3 57 78 3 77 3 0 49 0 50 -80 0 -80 0 0
60 0 60 89 0 c97 0 101 2 101 63 0 38 -10 54 -30 53 -8 -1 -77 -2 -152 -4z"/>
<path d="M3285 3557 c-87 -41 -126 -120 -133 -272 -4 -99 -2 -116 18 -163 48
-110 159 -158 273 -118 85 31 116 90 117 219 l0 87 -95 0 -95 0 0 -49 c0 -49
1 -50 33 -53 27 -2 33 -8 35 -30 4 -33 -36 -78 -68 -78 -63 0 -90 52 -90 175
0 126 30 185 95 185 36 0 55 -20 55 -59 0 -18 6 -21 44 -21 63 0 76 7 76 42 0
45 -26 90 -66 118 -45 30 -151 39 -199 17z"/>
<path d="M3450 2904 c-476 -163 -1067 -365 -1315 -449 -247 -84 -650 -222
-895 -305 -245 -84 -491 -168 -547 -187 l-103 -35 0 -289 0 -289 115 0 c119 0
167 -11 194 -44 12 -14 8 -14 -20 3 -40 23 -188 39 -253 27 l-36 -7 0 -96 0
-96 269 5 c148 3 289 2 315 -3 l46 -8 78 63 c43 34 97 73 120 86 23 13 38 28
35 34 -3 6 -3 8 2 4 14 -13 45 12 45 35 0 39 -12 67 -28 67 -8 0 -46 9 -83 20
-55 17 -69 25 -69 40 0 11 6 20 13 20 38 0 56 106 34 211 -29 140 -42 154
-152 167 l-70 8 45 8 c33 6 60 3 100 -11 l55 -18 24 -70 c42 -125 39 -282 -5
-299 -37 -14 -4 -32 92 -52 27 -5 31 -2 43 31 7 20 19 39 26 41 8 3 11 13 9
22 -5 15 -4 15 6 0 8 -13 7 -25 -5 -47 -9 -19 -15 -57 -15 -103 l0 -74 -89
-52 c-49 -28 -114 -75 -145 -103 l-56 -51 -51 12 c-37 9 -120 10 -320 5 l-269
-7 0 -37 c0 -103 86 -217 194 -259 l58 -22 1549 0 1548 0 9 38 c6 20 15 78 22
127 7 50 16 106 21 125 21 83 25 80 -118 80 -131 -1 -186 -12 -223 -45 -18
-16 -21 -16 -62 3 -65 31 -119 33 -543 24 -311 -8 -399 -12 -434 -25 -43 -16
-44 -16 -67 12 -22 27 -120 83 -194 111 -19 8 -57 27 -83 42 -42 24 -91 40
-200 63 -23 5 -28 10 -25 31 3 22 14 29 83 52 59 20 83 34 93 52 19 36 12 249
-9 281 -10 15 -14 38 -11 62 3 27 -3 52 -22 92 -22 45 -25 58 -16 76 9 16 9
28 0 50 -12 27 -72 89 -88 89 -4 0 -44 4 -89 10 -94 10 -159 3 -278 -34 -44
-14 -92 -27 -107 -31 -34 -7 -94 -58 -115 -99 -9 -17 -22 -67 -29 -111 l-11
-80 -2 65 c-2 129 37 200 139 254 137 72 295 100 426 76 88 -16 110 -28 162
-84 43 -47 50 -72 31 -108 -8 -15 -6 -31 12 -71 12 -29 23 -72 24 -97 1 -25 7
-65 14 -90 15 -52 10 -235 -8 -267 -6 -12 -44 -34 -91 -53 -45 -18 -78 -36
-73 -40 4 -3 43 -14 85 -24 61 -14 130 -18 330 -19 232 -2 256 -4 286 -22 17
-10 32 -23 32 -27 0 -4 -17 3 -37 15 -36 21 -49 22 -254 23 -119 0 -224 -3
-234 -6 -11 -4 17 -21 90 -55 64 -29 126 -66 154 -91 l47 -42 34 16 c29 13
106 16 482 20 444 4 447 4 492 -18 l46 -22 29 21 c40 29 113 41 241 41 l107 0
18 103 c9 56 19 113 20 127 2 14 9 54 15 90 6 36 15 90 20 120 5 30 14 88 21
128 7 39 9 75 5 79 -13 13 -96 -39 -117 -74 -18 -29 -21 -45 -16 -94 3 -33 15
-77 26 -99 29 -56 27 -92 -8 -129 -38 -40 -61 -40 -27 0 39 46 41 71 12 144
-17 42 -26 84 -26 120 0 47 4 59 32 90 31 36 95 75 122 75 10 0 17 15 21 48 4
26 10 70 16 97 10 58 46 275 54 331 4 22 8 46 11 55 4 16 37 204 54 309 19
123 83 421 94 439 8 12 -15 51 -29 51 -5 -1 -399 -134 -875 -296z m-1 -959
c24 -3 56 -12 72 -20 50 -26 57 -54 55 -215 -2 -165 -18 -219 -75 -259 -41
-29 -29 -45 48 -67 65 -19 136 -57 144 -78 4 -10 -6 -7 -28 9 -19 12 -66 30
-105 40 -75 19 -120 46 -120 74 0 10 17 29 37 42 52 34 65 79 68 228 1 68 -1
136 -4 150 -5 16 -23 35 -47 49 -34 20 -50 22 -134 20 -160 -5 -212 -46 -218
-172 -3 -60 1 -87 27 -165 17 -51 31 -100 31 -110 0 -31 -35 -52 -106 -62
-102 -14 -166 -35 -225 -74 -48 -31 -50 -32 -20 -6 52 46 150 89 230 102 103
17 110 31 75 135 -20 60 -27 100 -28 169 -1 105 13 141 72 180 38 25 131 45
182 39 14 -2 45 -6 69 -9z m-840 -240 c34 -17 59 -66 74 -147 11 -60 11 -61
-18 -85 -23 -20 -25 -27 -14 -34 8 -5 16 -9 19 -9 3 -1 21 -15 40 -32 l35 -31
-35 22 c-19 13 -47 28 -62 34 -33 13 -37 43 -8 52 25 8 27 70 4 138 -19 56
-45 77 -97 77 -76 0 -104 -41 -94 -140 6 -54 4 -62 -19 -87 l-26 -28 20 28
c17 24 19 38 15 107 l-6 79 36 36 c39 39 86 46 136 20z"/>
</g>
</svg>
